HIERARCHY
ROOT Hips
{
	OFFSET	0.00	0.00	0.00
	CHANNELS 6 Xposition Yposition Zposition Zrotation Xrotation Yrotation
	JOINT Chest
	{
		OFFSET	 0.000000	 4.570000	 0.000000
		CHANNELS 3 Zrotation Xrotation Yrotation
		JOINT Neck
		{
			OFFSET	 0.000000	 17.620001	 0.000000
			CHANNELS 3 Zrotation Xrotation Yrotation
			JOINT Head
			{
				OFFSET	 0.000000	 5.190000	 0.000000
				CHANNELS 3 Zrotation Xrotation Yrotation
				End Site 
				{
					OFFSET	 0.000000	 4.140008	 0.000000
				}
			}
		}
		JOINT LeftCollar
		{
			OFFSET	 1.060000	 15.330000	 01.760000
			CHANNELS 3 Zrotation Xrotation Yrotation
			JOINT LeftShoulder
			{
				OFFSET	 5.00000	 0.000000	 0.000000
				CHANNELS 3 Zrotation Xrotation Yrotation
				JOINT LeftElbow
				{
					OFFSET	 0.000000	-11.90000	 0.000000
					CHANNELS 3 Zrotation Xrotation Yrotation
					JOINT LeftWrist
					{
						OFFSET	 0.000000	-9.520000	 0.000000
						CHANNELS 3 Zrotation Xrotation Yrotation
						End Site 
						{
							OFFSET	 0.000000	-7.0	 0.000000
						}
					}
				}
			}
		}
		JOINT RightCollar
		{
			OFFSET	-1.060000	 15.330000	 01.760000
			CHANNELS 3 Zrotation Xrotation Yrotation
			JOINT RightShoulder
			{
				OFFSET	-5.000000	 0.000000	 0.000000
				CHANNELS 3 Zrotation Xrotation Yrotation
				JOINT RightElbow
				{
					OFFSET	 0.000000	-11.900000	 0.000000
					CHANNELS 3 Zrotation Xrotation Yrotation
					JOINT RightWrist
					{
						OFFSET	 0.000000	-9.520000	 0.000000
						CHANNELS 3 Zrotation Xrotation Yrotation
						End Site 
						{
							OFFSET	 0.000000	-7.0	 0.000000
						}
					}
				}
			}
		}
	}
	JOINT LeftHip
	{
		OFFSET	 3.430000	 0.000000	 0.000000
		CHANNELS 3 Zrotation Xrotation Yrotation
		JOINT LeftKnee
		{
			OFFSET	 0.000000	-19.0	 0.000000
			CHANNELS 3 Zrotation Xrotation Yrotation
			JOINT LeftAnkle
			{
				OFFSET	 0.000000	-15.00000	 0.000000
				CHANNELS 3 Zrotation Xrotation Yrotation
				End Site 
				{
					OFFSET	 0.000000	-3.0	 0.000000
				}
			}
		}
	}
	JOINT RightHip
	{
		OFFSET	-3.430000	 0.000000	 0.000000
		CHANNELS 3 Zrotation Xrotation Yrotation
		JOINT RightKnee
		{
			OFFSET	 0.000000	-19.0	 0.000000
			CHANNELS 3 Zrotation Xrotation Yrotation
			JOINT RightAnkle
			{
				OFFSET	 0.000000	-15.00000	 0.000000
				CHANNELS 3 Zrotation Xrotation Yrotation
				End Site 
				{
					OFFSET	 0.000000	-3.0	 0.000000
				}
			}
		}
	}
}
MOTION
Frames: 20
Frame Time: 0.033333333
-3.480383	38.269555	-5.473248	-353.692566	-349.646745	-1.134932	-4.981747	-2.592748	5.195620	-9.913102	35.878583	3.899583	0.622901	-32.606147	11.180516	11.835383	24.655065	3.567552	3.587304	8.534654	2.840310	174.604929	-134.594843	109.496747	-8.206169	-7.756491	58.827134	341.390167	-335.478447	-1.041071	-11.470358	-24.958079	79.000992	-52.100231	-33.954526	50.013673	212.205065	190.628075	102.562828	5.023552	-22.546013	19.909741	-350.018171	-312.044041	-5.538266	-10.209803	-6.470551	1.564328	356.529554	342.926795	-1.304025	-6.264890	44.779006	4.089677	-351.532833	345.005304	-3.471765	
-3.478926	38.261395	-5.493980	-353.577409	-349.383018	-1.003404	-5.056575	-2.778938	5.162979	-9.956348	35.848424	3.912626	0.540466	-32.496673	11.050019	11.964492	24.660826	3.410433	3.781341	8.389808	2.945699	174.481685	-134.432736	108.342220	-8.363756	-7.510989	58.816670	341.208784	-335.485851	-1.155708	-11.531552	-25.310592	78.900895	-51.906824	-34.137681	49.808798	212.334497	190.491990	102.529592	4.838547	-23.336302	19.768034	-349.722150	-311.349110	-5.812339	-11.140944	-6.112346	1.559423	356.313802	342.576980	-1.423493	-6.136072	44.895430	4.033474	-352.368657	344.779170	-3.773877	
-3.472652	38.222164	-5.597569	-353.013536	-348.077659	-0.363664	-5.429400	-3.691913	4.993683	-10.184935	35.699349	3.982584	0.137130	-31.948643	10.412570	12.601337	24.686719	2.645162	4.761192	7.662479	3.473267	173.780607	-133.629232	102.506704	-9.366842	-6.503505	58.653906	340.288648	-335.524373	-1.703759	-11.878622	-27.062855	78.388802	-50.931172	-35.034925	48.748555	212.957151	189.792688	102.359555	3.889168	-27.204962	18.946517	-348.334201	-307.989969	-7.178828	-16.029460	-4.287808	1.801055	355.225479	340.852631	-2.058287	-5.513016	45.468770	3.756733	-356.595315	343.721310	-5.364220	
-3.461665	38.230950	-5.562673	-352.734619	-348.232623	-0.741592	-5.458662	-3.350658	5.013051	-10.877575	35.523758	4.236079	0.636886	-31.888073	10.988510	12.289147	24.694152	2.466765	5.946320	7.498198	4.097346	174.743678	-134.520763	105.226533	-10.127381	-6.357255	58.525512	339.245733	-335.538006	-1.014262	-11.952332	-29.129469	77.922751	-49.015325	-33.297581	45.887689	214.159565	188.571532	101.991394	3.380450	-28.407519	18.514440	-348.731773	-305.939218	-7.207161	-15.780341	-4.066236	0.515218	355.091334	341.020189	-2.126740	-5.605537	45.428219	3.803804	-358.084596	343.424607	-5.784332	
-3.405794	38.284869	-5.472412	-352.588699	-348.799091	-1.763285	-5.190694	-2.705816	5.133574	-12.078348	35.413960	4.705934	1.323471	-32.055149	11.788760	11.467554	24.681178	2.920583	6.757716	7.518583	4.524380	176.721960	-136.078087	110.977279	-10.223369	-6.753202	58.486669	-21.871858	24.455816	0.529933	-12.106881	-31.212485	77.425629	-47.490068	-30.750057	44.296853	215.118468	187.482827	101.668934	2.626351	-28.515271	18.000804	-349.527135	-305.037059	-6.776303	346.452648	354.463886	-0.652922	355.303562	341.663647	-1.988147	-6.103588	45.164737	4.049671	-358.216993	343.551730	-5.230507	
-3.273679	38.358058	-5.346245	-352.375788	-349.266385	-2.838429	-4.963183	-2.076919	5.236401	-13.275358	35.157530	5.141725	1.594972	-32.293161	12.140899	10.544757	24.668505	3.331617	7.236233	7.643936	4.776924	179.053541	-137.490762	117.409118	-9.782466	-7.492588	58.497427	-22.802615	24.438997	1.679885	-12.262833	-33.138004	76.963608	-46.077193	-28.144559	43.043988	215.573892	185.947920	101.309516	1.055414	-28.199917	16.991330	-350.016695	-305.367149	-6.394887	349.239365	351.792053	-1.001853	355.142807	342.295385	-2.052250	-6.400691	44.756883	4.161622	-357.809558	343.839445	-4.266310	
-3.070067	38.407758	-5.184965	-351.989227	-349.376379	-3.800398	-4.955277	-1.747656	5.261042	-14.236811	34.743119	5.438586	1.467533	-32.449463	12.135167	9.825274	24.658131	3.637428	7.600814	7.828576	4.970340	180.772481	221.522863	122.516310	-8.990306	-8.367897	58.566637	-23.649785	24.415704	2.135944	-12.282957	-34.798471	76.612809	-44.952349	-25.778856	40.984890	215.642836	184.300751	100.975588	-1.250365	-27.767614	15.538953	-350.278920	-306.776599	-6.045100	351.632636	348.841411	-0.482735	354.449379	342.624382	-2.406733	-6.430014	44.351204	4.124294	-357.495616	344.059924	-3.227378	
-2.807652	38.415077	-4.982941	-351.349975	-349.181582	-4.674201	-5.267776	-1.743549	5.185646	-14.941766	34.261625	5.605687	1.250656	-32.495222	12.060725	9.339637	24.648079	3.905367	8.138948	8.087139	5.257489	181.327051	221.150618	125.160945	-8.199385	-9.073131	58.679779	-24.413937	24.392463	2.183248	-12.398302	-36.133110	76.291216	-44.286150	-23.716197	37.767667	215.523307	183.105045	100.733956	-4.024574	-27.290652	13.832347	-350.560979	-308.802734	-5.614111	-7.209711	-13.575369	0.336672	353.249943	342.640282	-3.042492	-6.357688	44.104566	4.052642	-357.481381	344.023314	-2.115860	
-2.480292	38.424684	-4.739170	-350.361838	-349.104947	-5.448942	-5.981710	-1.609563	5.024877	-15.498670	33.812034	5.712547	1.199386	-32.655434	11.803010	8.688934	24.649682	3.886671	9.134250	8.526632	5.793238	181.146953	221.890778	125.341727	-8.224537	-9.346906	58.647254	-24.511830	24.389773	2.292494	-13.532383	-37.083627	75.629781	-43.809911	-21.931773	34.418750	214.925160	182.090038	100.568358	-7.195999	-26.747305	11.937750	-350.782797	-310.463672	-5.272681	-7.989593	-15.259704	0.765080	351.465351	342.668887	-3.993440	-6.330954	44.146366	4.043635	-357.428297	343.630851	-0.597412	
-2.245529	38.383953	-4.426416	-350.649881	-348.710135	-6.766020	-5.563396	-1.936016	5.098965	-16.104071	33.526054	5.873445	1.639475	-32.779494	12.642318	7.906320	24.609328	4.822040	10.338794	8.694496	6.442186	179.644516	-137.799759	122.946981	-8.094523	-8.585873	58.779630	-25.423095	24.361968	2.925079	-13.703011	-37.899213	75.389843	-43.466954	-21.123254	32.690084	214.376915	181.418862	100.522336	-8.302293	-25.793857	11.465381	-351.233070	-312.994585	-4.697570	-6.880103	-16.128091	1.737340	351.523626	342.427017	-3.984608	-6.302180	44.257012	4.042438	4.056801	-16.591651	0.562626	
-2.016411	38.346520	-4.021380	-351.137119	-348.925723	-7.876915	-5.306957	-1.698381	5.179547	-16.236718	33.434171	5.900189	2.104581	-32.563507	13.281002	7.110853	24.566228	5.707948	11.726764	8.532322	7.182912	178.220845	-137.769078	120.065433	-8.127693	-8.104798	58.823029	-25.294225	24.365439	3.257055	-14.734102	-38.138385	74.911430	-43.682948	-20.735171	31.502440	214.216542	181.410093	100.528374	-8.818514	-23.859308	11.599059	-351.258915	-315.065881	-4.433923	-2.818787	-16.543469	2.633430	351.654083	343.287976	-3.835441	-6.120809	43.816147	3.887835	5.804025	-16.487776	1.850769	
-1.751671	38.304815	-3.543746	-351.530484	-349.414382	-8.588899	-5.299734	-1.354636	5.206784	-16.140391	33.688797	5.930838	2.186217	-32.155348	13.332628	6.439507	24.534717	6.299897	13.083534	7.920992	7.886444	177.055465	-138.313485	117.588684	-8.481082	-7.840817	58.751496	-24.717438	24.383151	3.325045	-15.755991	-37.766065	74.563138	-43.855298	-20.413533	30.796643	213.878803	181.371707	100.557997	-9.350495	-21.388306	11.862850	-350.912434	-317.202855	-4.351306	2.557885	-16.318047	3.082962	351.525730	343.887366	-3.846039	-6.262685	44.629281	4.069108	8.283896	-16.408627	3.074738	
-1.447345	38.251284	-3.030301	-351.725390	-349.871076	-8.908784	-5.484553	-1.336359	5.164761	-16.051549	34.458092	6.099028	1.906333	-31.747900	12.945530	6.015398	24.537056	6.252667	14.304928	6.961250	8.491985	176.137159	-139.446122	116.150765	-9.056455	-7.456361	58.655402	-24.127187	24.400828	3.423543	-16.374596	-36.758226	74.518209	-43.886594	-19.956019	30.439198	213.501312	181.178413	100.577681	-10.057729	-18.839493	12.073239	-350.645674	-319.434169	-4.187027	6.247841	-16.068013	3.042950	351.250473	342.706453	-4.105102	-7.511794	48.533018	5.330224	11.608290	-16.376027	3.944879	
-1.129626	38.178810	-2.519752	-351.889287	-350.177369	-9.007525	-5.659761	-1.746500	5.090711	-16.010810	35.655147	6.394657	1.524434	-31.545002	12.571175	5.923572	24.578959	5.443117	15.324309	5.806569	8.969276	175.344707	-140.866760	115.714015	-9.659013	-6.585110	58.660969	-23.687920	24.411814	3.836417	-16.614076	-35.150512	74.759752	-44.086889	-19.265728	30.190545	213.441384	181.216798	100.592373	-10.740721	-16.458071	12.288534	-350.780584	-321.539206	-3.832636	6.917058	-16.388321	3.054425	351.280417	338.833490	-4.447229	-11.154658	56.204471	9.037286	15.262781	-15.596240	3.859154	
-0.847931	38.082448	-2.034910	-352.544657	-350.611386	-9.192929	-5.466679	-2.016876	5.116332	-15.650710	36.687028	6.502538	1.343092	-31.752586	12.714122	6.204193	24.634589	4.238430	15.998111	4.433396	9.247023	174.694514	-141.927461	115.278154	-10.126888	-5.170296	58.827530	-23.160957	24.420962	4.551885	-16.863375	-33.101855	75.091480	-45.050714	-18.294958	29.645602	213.742049	182.354585	100.701110	-10.920061	-13.886380	12.793185	-351.082833	-323.511655	-3.429308	6.673440	-17.370902	3.559849	352.428326	332.686976	-4.164002	-19.781107	66.332507	18.094096	18.060317	-12.192306	1.656571	
-0.589671	37.965594	-1.520056	-353.031158	-351.363882	-8.990081	-5.846807	-1.746073	5.045616	-14.060781	36.948539	5.866530	1.052310	-32.153736	12.688971	7.274708	24.684008	2.992849	15.899362	2.428396	9.100084	174.196416	-142.160425	114.087577	-10.145728	-3.836897	59.076524	-21.498124	24.474013	3.990549	-17.296815	-30.859671	75.389850	-46.148855	-18.004057	29.178632	214.171326	183.304855	100.801828	-11.582784	-11.027513	13.165587	-350.718019	-325.430665	-3.307663	6.907763	-18.337994	3.387208	353.370400	325.983364	-3.783944	-37.214831	75.628306	36.578039	-344.608634	353.507933	-2.976947	
-0.378861	37.857909	-0.910408	-353.416463	-352.178423	-8.477433	-6.497376	-1.569842	4.905828	-12.085531	37.309050	5.073370	0.654280	-32.382896	12.396033	8.610349	24.721295	1.841593	15.596660	0.151809	8.849198	173.449890	-142.160480	112.791173	-10.214159	-3.268261	59.180521	-19.386351	24.537918	2.630197	-17.315817	-28.524893	75.881357	-46.272345	-18.330566	29.413222	214.088736	183.233753	100.812701	-12.199907	-8.331351	13.546987	-350.403666	-326.878938	-3.211826	7.460568	-19.454801	3.114690	353.989215	320.463588	-3.415904	-67.431601	80.820602	67.882120	-345.471642	357.856632	-4.395272	
-0.227196	37.801022	-0.201010	-354.208983	-353.155714	-7.896160	-6.702764	-1.404795	4.873376	-10.297705	38.025148	4.405586	0.167083	-32.339285	12.090438	9.455361	24.748814	0.762059	15.652136	-2.178106	8.780435	172.356062	-142.031034	110.646336	-10.334760	-3.235702	59.185022	-17.024611	24.592975	0.996820	-17.328244	-26.047344	76.409734	-45.724806	-19.010091	30.035155	214.022660	182.776567	100.768005	-12.114067	-5.519804	14.180685	-350.371319	-327.716702	-3.095677	7.814729	-20.437341	2.917529	355.069888	316.480140	-2.521400	-98.068557	82.277549	99.302219	-343.880071	-359.229336	-2.655624	
-0.098455	37.790282	0.605475	-355.267198	-354.233545	-7.334040	-6.460929	-1.370665	4.933215	-8.736545	39.045465	3.845839	-0.374700	-32.018922	11.957353	-350.449319	-335.230593	-0.291720	16.228937	-4.281699	8.971791	170.834815	-141.748059	107.733008	-10.183977	-3.232164	59.234937	345.427000	-335.367934	-0.619953	-17.698760	-23.315316	76.852883	-45.184357	-20.093762	31.292466	214.450872	182.682611	100.733697	-11.650066	-2.482134	14.906573	-350.470138	-328.296421	-2.972851	7.811681	-21.288647	2.785664	356.381612	313.915322	-1.342386	-113.222724	82.708842	114.866321	16.698200	3.704142	0.383106	
0.052651	37.796460	1.507202	-356.169357	-355.440275	-6.777477	-6.179766	-1.443586	4.992488	-7.065864	40.002262	3.178854	-0.931920	-31.534597	12.128185	-351.003111	-335.217315	-1.290298	17.142845	-5.991600	9.332507	169.069608	-141.338316	104.890092	-9.481519	-2.990986	59.426073	348.031870	-335.342745	-2.194578	-18.727832	-20.382025	77.078218	-45.165366	-21.756059	33.862455	215.409325	183.641160	100.813091	-11.488631	0.975404	15.560904	-350.491475	-329.181122	-2.830747	7.595618	-22.085139	2.556725	357.192109	312.595401	-0.587051	-115.960626	83.103046	117.718690	13.601026	7.176005	3.004068	
